<svg width="276" height="72" viewBox="0 0 276 72" fill="none" xmlns="http://www.w3.org/2000/svg">
<g opacity="0.3">
<mask id="mask0_11667_134658" style="mask-type:luminance" maskUnits="userSpaceOnUse" x="4" y="66" width="42" height="6">
<path d="M45.6284 66.8994H4.87354V71.4824H45.6284V66.8994Z" fill="white"/>
</mask>
<g mask="url(#mask0_11667_134658)">
<path d="M45.625 69.1926C45.625 70.4571 36.5034 71.4858 25.2493 71.4858C13.9951 71.4858 4.87354 70.4606 4.87354 69.1926C4.87354 67.9247 13.9951 66.8994 25.2493 66.8994C36.5034 66.8994 45.625 67.9247 45.625 69.1926Z" fill="#BFC1C7"/>
</g>
</g>
<path d="M50.4984 25.2492C50.4984 45.1294 34.1726 60.0609 27.7748 65.1497C26.2882 66.3322 24.1863 66.339 22.6894 65.1736C16.2712 60.1771 0 45.519 0 25.2492C0 11.3054 11.3054 0 25.2492 0C39.193 0 50.4984 11.3054 50.4984 25.2492Z" fill="#F43023"/>
<path fill-rule="evenodd" clip-rule="evenodd" d="M20.1024 10.7959C19.2754 11.0488 18.9131 11.6605 18.9131 12.7849C18.9131 13.5471 18.9233 13.5744 19.2002 13.8068C19.4804 14.0494 19.4975 14.0494 21.1516 14.0494H22.816V10.7002L21.5891 10.7104C20.909 10.7104 20.2391 10.748 20.1024 10.7925" fill="#F9F9F9"/>
<path fill-rule="evenodd" clip-rule="evenodd" d="M23.8411 12.3782V14.0597L25.2662 14.0324L26.6777 14.005V12.3782V10.748L25.2662 10.7207L23.8411 10.6934V12.3782Z" fill="#F9F9F9"/>
<path fill-rule="evenodd" clip-rule="evenodd" d="M27.6553 12.3856V14.0602L29.4222 14.0328C31.107 14.0055 31.1891 13.9952 31.3941 13.8004C31.5616 13.633 31.6094 13.4553 31.6368 12.946C31.6846 12.2113 31.5616 11.7567 31.2096 11.3364C30.7721 10.8169 30.3723 10.7041 28.9403 10.7041H27.6553V12.389V12.3856Z" fill="#F9F9F9"/>
<path fill-rule="evenodd" clip-rule="evenodd" d="M16.4489 14.9831C14.7845 15.236 13.8344 16.5347 13.3901 19.1697C13.1851 20.4239 12.9048 22.9906 12.7408 25.2154C12.6587 26.268 12.5631 27.4471 12.5357 27.8367L12.481 28.5612H11.654L11.7189 26.9516C11.7292 26.7089 11.7394 26.4697 11.7497 26.227C11.7565 26.0493 11.7633 25.875 11.7702 25.6973C11.7804 25.4444 11.7838 25.3316 11.5617 25.1847C11.1516 24.8976 9.85973 25.0445 9.44278 25.4273C9.05318 25.7896 8.97799 26.145 8.86521 28.0589C8.78319 29.7335 8.78319 29.9009 8.93014 30.0582C9.08052 30.2154 9.23773 30.2359 10.762 30.2359H12.4263L12.3717 30.9536C12.1564 33.5031 12.0641 41.7976 12.2213 43.0621C12.3341 43.8892 12.5836 44.3164 13.1987 44.747L13.6157 45.0341V45.8235C13.6157 46.5754 13.6259 46.6335 13.8857 46.8932C14.2001 47.2077 14.4222 47.1632 14.846 47.1632H15.697C16.6471 47.1632 17.3238 47.1256 17.4639 47.0607C17.8091 46.9035 17.9834 46.4387 17.9834 45.6834V45.0238H32.5833V45.8235C32.5833 46.22 32.6141 46.7189 32.9559 46.9855C33.2088 47.1803 33.5505 47.2042 33.8581 47.2008C34.4186 47.194 34.9825 47.1735 35.543 47.153C35.8506 47.1427 36.1889 47.1325 36.4794 47.0129C36.9818 46.8078 36.951 46.1995 36.9545 45.7415C36.9545 45.7176 36.9545 45.6971 36.9545 45.6732C36.9545 45.2631 36.9921 44.9281 37.0365 44.9281C37.0809 44.9281 37.3338 44.7333 37.5935 44.5009C38.3933 43.7764 38.383 43.9234 38.3112 37.676C38.2839 34.7368 38.2258 31.8524 38.1985 31.2782L38.1438 30.2359H39.7706C41.1273 30.2359 41.4247 30.2085 41.5477 30.0855C41.7254 29.918 41.7323 29.1183 41.6126 27.2318C41.493 25.482 41.223 25.1471 39.8457 25.0548C39.1861 25.0069 39.1007 25.0172 38.9162 25.2052C38.7214 25.4 38.7111 25.4546 38.7658 26.685C38.7931 27.3822 38.841 28.0999 38.8683 28.2571L38.9162 28.5647H38.0139L37.9011 26.8149C37.679 23.3631 37.2962 19.8771 36.951 18.305C36.6161 16.7603 35.8711 15.6735 34.8321 15.1882C34.3708 14.9729 33.9333 14.9353 33.4207 14.9353C32.8533 14.9353 32.286 14.9353 31.7187 14.9353C30.3482 14.9353 28.9778 14.9353 27.6073 14.9319C26.9409 14.9319 26.271 14.9319 25.6046 14.9319C20.8234 14.9216 16.7052 14.9489 16.4454 14.9865M35.4507 20.2565C35.7651 22.7411 36.0283 26.3022 36.0283 28.1614V29.3063H14.4974L14.5521 27.2865C14.6273 25.0343 14.7366 23.428 15.0066 21.0938C15.1092 20.2291 15.1912 19.5046 15.1912 19.4841C15.1912 19.4636 19.7298 19.4465 25.2731 19.4465H35.3448L35.4473 20.2565H35.4507ZM26.0557 30.998C26.1207 31.0629 26.1685 31.4081 26.1685 31.8832V32.6555H26.9409C27.4159 32.6555 27.7577 32.7034 27.826 32.7683C27.891 32.8332 27.9388 33.1682 27.9388 33.6056C27.9388 34.4805 27.891 34.5181 26.8794 34.5181H26.1719V35.3076C26.1719 36.2372 26.1241 36.285 25.2526 36.285C24.4426 36.285 24.3128 36.1346 24.3128 35.2153V34.5181H23.5882C23.1508 34.5181 22.8158 34.4703 22.7509 34.4053C22.686 34.3404 22.6381 33.9952 22.6381 33.5304C22.6381 32.6384 22.621 32.6555 23.6156 32.6555H24.2957L24.323 31.8661C24.3503 31.2885 24.3982 31.0493 24.5007 30.9809C24.7058 30.851 25.9327 30.8681 26.0626 30.998M15.779 36.0389C16.9034 36.596 17.481 37.3684 17.7612 38.6978C17.9184 39.4805 17.8432 39.9077 17.5117 40.0649C17.2622 40.1845 16.2848 40 14.9827 39.5728C14.1351 39.2925 13.7626 39.0157 13.6054 38.5406C13.3901 37.881 13.5302 36.2884 13.8276 35.9193C14.0224 35.6869 14.4598 35.5571 14.7845 35.6323C14.952 35.6699 15.3997 35.8544 15.779 36.0424M36.6195 35.9159C37.0741 36.4559 37.1869 38.1476 36.8041 38.8004C36.5546 39.2173 35.9565 39.4976 34.4699 39.8701C33.1575 40.205 32.973 40.1948 32.7679 39.8154C32.5628 39.4326 32.7303 38.3834 33.1404 37.5461C33.4104 36.9788 33.9948 36.4115 34.6749 36.0663C35.7925 35.499 36.2368 35.4614 36.6195 35.9159ZM30.6251 37.84C30.6251 37.84 30.6456 37.864 30.6558 37.8776C30.9087 38.1818 30.9976 38.5714 31.0864 38.9507C31.3667 40.1606 31.3462 40.5673 31.001 40.9705C30.4166 41.6301 30.3961 41.6301 25.1877 41.6301C24.3059 41.6301 23.4242 41.6541 22.5424 41.6541C21.7701 41.6541 20.8131 41.7634 20.1023 41.4183C19.2103 40.9808 19.0599 40.4989 19.3777 39.1763C19.4974 38.6842 19.6375 38.192 19.6853 38.069C19.9006 37.594 19.8904 37.594 25.3107 37.5837H29.651C30.0543 37.5837 30.3448 37.5359 30.6251 37.8434" fill="#F9F9F9"/>
<path d="M78.0199 44.7425H67.6064L64.7322 51.0207H58.4985L72.8046 20.9492H79.7047L85.3198 51.0207H79.0861L78.0233 44.7425H78.0199ZM69.8142 39.8793H77.2201L75.2311 28.0271L69.8142 39.8793Z" fill="#1C2130"/>
<path d="M92.0253 28.9126H97.3772L97.5994 31.0144C98.7067 30.2181 99.8482 29.5961 101.027 29.1449C102.206 28.6972 103.443 28.4717 104.742 28.4717C106.171 28.4717 107.425 28.6596 108.502 29.0356C109.578 29.4115 110.361 30.078 110.846 31.0383C111.967 30.2283 113.136 29.5961 114.349 29.1484C115.566 28.7007 116.858 28.4751 118.228 28.4751C119.185 28.4751 120.063 28.5708 120.86 28.7622C121.656 28.9536 122.339 29.2816 122.917 29.7464C123.495 30.2112 123.939 30.8298 124.253 31.6022C124.571 32.3746 124.728 33.3452 124.728 34.5106C124.728 34.8489 124.718 35.2146 124.694 35.6042C124.674 35.9938 124.622 36.4039 124.551 36.8311L122.493 51.0278H116.147L118.204 36.8311C118.235 36.6261 118.255 36.421 118.269 36.2228C118.283 36.0246 118.29 35.8434 118.29 35.6828C118.29 34.7977 118.084 34.1791 117.671 33.8271C117.257 33.4716 116.625 33.2973 115.771 33.2973C114.988 33.2973 114.226 33.4238 113.481 33.6733C112.736 33.9227 112.032 34.2645 111.369 34.6917C111.355 34.8387 111.342 34.9856 111.335 35.1326C111.328 35.2795 111.307 35.4333 111.28 35.5974L109.024 51.0312H102.678L104.845 36.1271C104.889 35.8161 104.91 35.5461 104.91 35.3103C104.91 34.5448 104.694 34.0184 104.267 33.7279C103.84 33.4409 103.184 33.2973 102.299 33.2973C101.413 33.2973 100.617 33.4443 99.8208 33.7382C99.0245 34.0321 98.2658 34.4251 97.5447 34.9104L95.2002 51.0278H88.8093L92.015 28.916L92.0253 28.9126Z" fill="#1C2130"/>
<path d="M132.455 20.0234H138.846L137.322 30.5257C137.736 30.201 138.166 29.9106 138.617 29.6508C139.065 29.3945 139.547 29.1758 140.056 28.9981C140.565 28.8203 141.112 28.687 141.703 28.6016C142.291 28.5128 142.947 28.4683 143.672 28.4683C144.793 28.4683 145.808 28.6768 146.724 29.0869C147.636 29.5004 148.416 30.0883 149.055 30.8572C149.697 31.6228 150.189 32.5524 150.538 33.6426C150.883 34.7328 151.057 35.9631 151.057 37.3336C151.057 38.1606 150.992 39.0219 150.859 39.9207C150.593 41.7047 150.152 43.311 149.533 44.7395C148.914 46.1681 148.142 47.3813 147.223 48.3758C146.3 49.3704 145.258 50.1325 144.092 50.6656C142.927 51.1954 141.676 51.4619 140.333 51.4619C139.55 51.4619 138.86 51.4072 138.255 51.2945C137.65 51.1851 137.107 51.0176 136.618 50.7955C136.133 50.5734 135.688 50.3102 135.292 49.9992C134.895 49.6882 134.52 49.3362 134.164 48.9397L133.347 51.0176H127.951L132.462 20.0166L132.455 20.0234ZM144.376 39.9241C144.448 39.4969 144.499 39.0902 144.519 38.7074C144.54 38.3247 144.554 37.9624 144.554 37.6241C144.554 36.1648 144.26 35.078 143.668 34.3637C143.077 33.6494 142.113 33.2906 140.77 33.2906C140.049 33.2906 139.345 33.4204 138.658 33.6767C137.971 33.9331 137.329 34.2612 136.724 34.661L135.176 45.2522C135.661 45.6657 136.208 46.0006 136.813 46.2569C137.418 46.5132 138.094 46.6431 138.846 46.6431C140.439 46.6431 141.679 46.0655 142.571 44.907C143.463 43.7518 144.065 42.0875 144.372 39.9207" fill="#1C2130"/>
<path d="M174.126 51.024H168.819L168.596 48.6351C167.475 49.5202 166.307 50.2106 165.093 50.713C163.877 51.2154 162.605 51.4648 161.279 51.4648C160.322 51.4648 159.444 51.3657 158.648 51.1675C157.851 50.9693 157.165 50.6344 156.59 50.1627C156.016 49.6911 155.569 49.0554 155.254 48.2489C154.936 47.4457 154.779 46.4341 154.779 45.2072C154.779 44.4417 154.844 43.5941 154.977 42.6645L156.966 28.9121H163.357L161.368 42.6645C161.279 43.225 161.235 43.7171 161.235 44.1478C161.235 45.091 161.44 45.7438 161.853 46.1026C162.267 46.4649 162.892 46.646 163.733 46.646C164.574 46.646 165.459 46.482 166.3 46.1607C167.141 45.8361 167.937 45.4089 168.689 44.8791L171.009 28.9155H177.332L174.126 51.0274V51.024Z" fill="#1C2130"/>
<path d="M188.002 38.3316L186.166 51.0246H179.82L184.174 20.9531H201.863L201.156 25.8164H189.813L188.709 33.4684H198.637L197.95 38.3316H188.002Z" fill="#F43023"/>
<path d="M213.305 48.5022C212.465 49.4011 211.467 50.1187 210.308 50.6587C209.15 51.1953 207.748 51.4653 206.094 51.4653C203.999 51.4653 202.417 50.8638 201.34 49.6642C200.264 48.4646 199.727 46.6977 199.727 44.3669C199.727 43.9534 199.744 43.5228 199.782 43.0717C199.82 42.624 199.874 42.1626 199.946 41.691C200.226 39.7292 200.718 37.9384 201.429 36.3185C202.137 34.6985 203.005 33.3042 204.037 32.1388C205.069 30.9734 206.231 30.0711 207.519 29.432C208.808 28.7895 210.185 28.4717 211.644 28.4717C212.174 28.4717 212.646 28.5093 213.059 28.581C213.473 28.6562 213.849 28.7656 214.187 28.9126C214.525 29.0595 214.833 29.2338 215.106 29.432C215.38 29.6302 215.65 29.849 215.913 30.0848L216.665 28.9126H221.993L218.787 51.0244H213.702L213.305 48.5056V48.5022ZM206.32 41.6021C206.289 41.8379 206.269 42.0635 206.255 42.2754C206.241 42.4873 206.234 42.6991 206.234 42.9042C206.234 43.5672 206.316 44.1311 206.477 44.5959C206.638 45.0607 206.86 45.4435 207.14 45.7476C207.42 46.0518 207.752 46.2671 208.135 46.4004C208.517 46.5337 208.924 46.5986 209.351 46.5986C210.103 46.5986 210.824 46.4277 211.518 46.0894C212.212 45.7511 212.824 45.2863 213.353 44.695L214.901 33.9706C214.519 33.7929 214.115 33.6391 213.695 33.5058C213.275 33.3725 212.8 33.3076 212.27 33.3076C211.549 33.3076 210.865 33.5024 210.223 33.892C209.584 34.2816 209.003 34.8352 208.487 35.5495C207.971 36.2638 207.526 37.1353 207.15 38.1572C206.774 39.1824 206.498 40.3273 206.32 41.5953" fill="#F43023"/>
<path d="M241.531 44.5656C241.412 45.6114 241.094 46.5581 240.571 47.4057C240.048 48.2532 239.355 48.9743 238.493 49.5724C237.632 50.1705 236.617 50.6319 235.452 50.9634C234.286 51.2949 233.011 51.4624 231.627 51.4624C230.889 51.4624 230.154 51.4213 229.416 51.3393C228.678 51.2573 227.967 51.1411 227.284 50.9873C226.6 50.8335 225.951 50.6455 225.339 50.4234C224.727 50.2013 224.177 49.9586 223.692 49.692L225.042 45.3141C225.602 45.5055 226.142 45.69 226.665 45.8677C227.188 46.0455 227.714 46.1993 228.244 46.3325C228.774 46.4658 229.314 46.5684 229.857 46.6435C230.4 46.7187 230.971 46.7529 231.559 46.7529C232.635 46.7529 233.456 46.5547 234.023 46.1548C234.59 45.755 234.912 45.1808 234.983 44.4289C235.028 44.0906 234.966 43.7898 234.795 43.5335C234.625 43.2772 234.375 43.0414 234.044 42.8261C233.712 42.6142 233.312 42.4262 232.851 42.2622C232.386 42.1016 231.88 41.9375 231.337 41.7769C230.496 41.5411 229.724 41.2574 229.016 40.9259C228.309 40.5944 227.697 40.1979 227.181 39.7332C226.665 39.2684 226.258 38.7284 225.964 38.1098C225.67 37.4912 225.523 36.7769 225.523 35.9635C225.523 35.8473 225.527 35.7209 225.534 35.5876C225.541 35.4543 225.551 35.321 225.568 35.1912C225.688 34.1454 226.009 33.2055 226.542 32.3716C227.072 31.5378 227.769 30.8337 228.63 30.2596C229.491 29.6854 230.506 29.2411 231.672 28.9335C232.837 28.6225 234.112 28.4688 235.496 28.4688C237 28.4688 238.36 28.6225 239.577 28.9335C240.793 29.2445 241.778 29.5761 242.529 29.9281L241.07 34.3949C240.554 34.2172 240.069 34.0565 239.611 33.9096C239.153 33.7626 238.709 33.6327 238.275 33.5234C237.841 33.414 237.403 33.3286 236.959 33.2705C236.518 33.2124 236.053 33.1816 235.564 33.1816C234.461 33.1816 233.627 33.3593 233.066 33.7113C232.506 34.0634 232.188 34.5897 232.116 35.28C232.085 35.6047 232.119 35.8884 232.215 36.131C232.311 36.3737 232.482 36.5958 232.724 36.794C232.967 36.9922 233.292 37.1768 233.698 37.3477C234.105 37.5186 234.601 37.6826 235.192 37.8466C237.345 38.4652 238.948 39.2547 240 40.2116C241.053 41.1685 241.583 42.3784 241.583 43.8377C241.583 43.9539 241.579 44.0769 241.573 44.2034C241.566 44.3298 241.555 44.4494 241.538 44.5691" fill="#F43023"/>
<path d="M245.523 28.9129H248.596L249.436 23.1645L255.848 22.7236L254.942 28.9163H260.933L260.335 33.0516H254.344L252.905 43.0447C252.874 43.2497 252.854 43.4445 252.84 43.6188C252.827 43.7965 252.82 43.964 252.82 44.1281C252.82 44.9244 253.014 45.4746 253.404 45.7753C253.794 46.0761 254.409 46.2299 255.25 46.2299C255.841 46.2299 256.422 46.1854 256.996 46.0966C257.57 46.0077 258.059 45.9189 258.455 45.83L258.301 50.4301C257.977 50.5497 257.608 50.6557 257.198 50.7514C256.784 50.8471 256.353 50.9291 255.902 50.994C255.451 51.0589 255 51.117 254.542 51.1615C254.084 51.2059 253.643 51.2264 253.216 51.2264C252.184 51.2264 251.248 51.1375 250.407 50.9598C249.566 50.7821 248.848 50.4745 248.25 50.0302C247.652 49.5894 247.191 48.9879 246.87 48.2292C246.545 47.4705 246.384 46.5067 246.384 45.3447C246.384 45.0064 246.395 44.6441 246.419 44.2613C246.439 43.8786 246.487 43.4719 246.562 43.0447L247.997 33.0516H244.727L245.523 28.9163V28.9129Z" fill="#F43023"/>
<path d="M263.272 25.2412V19.2939H261.148V18.083H266.836V19.2939H264.717V25.2412H263.272ZM267.754 25.2412V18.083H269.917L271.216 22.9658L272.5 18.083H274.668V25.2412H273.326V19.6064L271.905 25.2412H270.513L269.097 19.6064V25.2412H267.754Z" fill="black"/>
</svg>
