<svg width="16" height="16" viewBox="0 0 16 16" fill="none" xmlns="http://www.w3.org/2000/svg">
<rect width="16" height="16" fill="#C4C4C4"/>
<path d="M-1094 -1898C-1094 -1899.1 -1093.1 -1900 -1092 -1900H5295C5296.1 -1900 5297 -1899.1 5297 -1898V38283C5297 38284.1 5296.1 38285 5295 38285H-1092C-1093.1 38285 -1094 38284.1 -1094 38283V-1898Z" fill="#DFDFDF"/>
<path d="M-1092 -1900V-1899H5295V-1900V-1901H-1092V-1900ZM5297 -1898H5296V38283H5297H5298V-1898H5297ZM5295 38285V38284H-1092V38285V38286H5295V38285ZM-1094 38283H-1093V-1898H-1094H-1095V38283H-1094ZM-1092 38285V38284C-1092.55 38284 -1093 38283.6 -1093 38283H-1094H-1095C-1095 38284.7 -1093.66 38286 -1092 38286V38285ZM5297 38283H5296C5296 38283.6 5295.55 38284 5295 38284V38285V38286C5296.66 38286 5298 38284.7 5298 38283H5297ZM5295 -1900V-1899C5295.55 -1899 5296 -1898.55 5296 -1898H5297H5298C5298 -1899.66 5296.66 -1901 5295 -1901V-1900ZM-1092 -1900V-1901C-1093.66 -1901 -1095 -1899.66 -1095 -1898H-1094H-1093C-1093 -1898.55 -1092.55 -1899 -1092 -1899V-1900Z" fill="black" fill-opacity="0.1"/>
<path d="M-994 -350C-994 -351.105 -993.105 -352 -992 -352H429C430.105 -352 431 -351.105 431 -350V894C431 895.104 430.105 896 429 896H-992C-993.105 896 -994 895.105 -994 894V-350Z" fill="#D2CECE"/>
<path d="M-992 -352V-351H429V-352V-353H-992V-352ZM431 -350H430V894H431H432V-350H431ZM429 896V895H-992V896V897H429V896ZM-994 894H-993V-350H-994H-995V894H-994ZM-992 896V895C-992.552 895 -993 894.552 -993 894H-994H-995C-995 895.657 -993.657 897 -992 897V896ZM431 894H430C430 894.552 429.552 895 429 895V896V897C430.657 897 432 895.657 432 894H431ZM429 -352V-351C429.552 -351 430 -350.552 430 -350H431H432C432 -351.657 430.657 -353 429 -353V-352ZM-992 -352V-353C-993.657 -353 -995 -351.657 -995 -350H-994H-993C-993 -350.552 -992.552 -351 -992 -351V-352Z" fill="black" fill-opacity="0.1"/>
<path d="M-36 -15.5H323C327.142 -15.5 330.5 -12.1421 330.5 -8V88C330.5 92.1421 327.142 95.5 323 95.5H-36C-40.1421 95.5 -43.5 92.1421 -43.5 88V-8C-43.5 -12.1421 -40.1421 -15.5 -36 -15.5Z" fill="#FAFFFB"/>
<path d="M-36 -15.5H323C327.142 -15.5 330.5 -12.1421 330.5 -8V88C330.5 92.1421 327.142 95.5 323 95.5H-36C-40.1421 95.5 -43.5 92.1421 -43.5 88V-8C-43.5 -12.1421 -40.1421 -15.5 -36 -15.5Z" stroke="#FEE8E7"/>
<path d="M7.99992 5.33301V7.99967M7.99992 10.6663H8.00659M14.6666 7.99967C14.6666 11.6816 11.6818 14.6663 7.99992 14.6663C4.31802 14.6663 1.33325 11.6816 1.33325 7.99967C1.33325 4.31778 4.31802 1.33301 7.99992 1.33301C11.6818 1.33301 14.6666 4.31778 14.6666 7.99967Z" stroke="#F5355F" stroke-linecap="round" stroke-linejoin="round"/>
</svg>
