<svg width="16" height="16" viewBox="0 0 16 16" fill="none" xmlns="http://www.w3.org/2000/svg">
<path d="M7.99992 1.33301C4.33325 1.33301 1.33325 4.33301 1.33325 7.99967C1.33325 11.6663 4.33325 14.6663 7.99992 14.6663C11.6666 14.6663 14.6666 11.6663 14.6666 7.99967C14.6666 4.33301 11.6666 1.33301 7.99992 1.33301ZM10.7999 6.86634L7.59992 10.0663C7.33325 10.333 6.93325 10.333 6.66659 10.0663L5.19992 8.59967C4.93325 8.33301 4.93325 7.93301 5.19992 7.66634C5.46659 7.39967 5.86659 7.39967 6.13325 7.66634L7.13325 8.66634L9.86659 5.93301C10.1333 5.66634 10.5333 5.66634 10.7999 5.93301C11.0666 6.19967 11.0666 6.59967 10.7999 6.86634Z" fill="#F43023"/>
</svg>
